CddbId:0b0fa315:[150, 10355, 27087, 39928, 48085, 61406, 82506, 105171, 122123, 132526, 144944, 155224, 165618, 180601, 197652, 214638, 227763, 240132, 258124, 274687, 284304]:300375:74:0b0fa315 21 150 10355 27087 39928 48085 61406 82506 105171 122123 132526 144944 155224 165618 180601 197652 214638 227763 240132 258124 274687 284304 4005: 21 0 0 0 0 0 0 0 0 0 0 0 0 0 0 0 0 0 0 0 0 0 4005
num_tracks: 21
offsets: [150, 10355, 27087, 39928, 48085, 61406, 82506, 105171, 122123, 132526, 144944, 155224, 165618, 180601, 197652, 214638, 227763, 240132, 258124, 274687, 284304]
extents: [0, 0, 0, 0, 0, 0, 0, 0, 0, 0, 0, 0, 0, 0, 0, 0, 0, 0, 0, 0, 0]
total_length: 4005
cddb: [185574165, 21, 150, 10355, 27087, 39928, 48085, 61406, 82506, 105171, 122123, 132526, 144944, 155224, 165618, 180601, 197652, 214638, 227763, 240132, 258124, 274687, 284304, 4005]
musicbrainz: ('21 150 10355 27087 39928 48085 61406 82506 105171 122123 132526 144944 155224 165618 180601 197652 214638 227763 240132 258124 274687 284304 300394', 'G2tV5We6m8.bWhtDTz2C3RZxdO8-')

CD record:
Device type    : Removable CD-ROM
Version        : 0
Response Format: 1
Vendor_info    : 'SAMSUNG '
Identification : 'CD-ROM SC-148A  '
Revision       : 'B403'
Device seems to be: Generic mmc CD-ROM.
Using generic SCSI-3/mmc   CD-ROM driver (mmc_cd).
Driver flags   : MMC-2 SWABAUDIO 
Supported modes: 
first: 1 last 21
track:   1 lba:         0 (        0) 00:02:00 adr: 1 control: 0 mode: -1
track:   2 lba:     10205 (    40820) 02:18:05 adr: 1 control: 0 mode: -1
track:   3 lba:     26937 (   107748) 06:01:12 adr: 1 control: 0 mode: -1
track:   4 lba:     39778 (   159112) 08:52:28 adr: 1 control: 0 mode: -1
track:   5 lba:     47935 (   191740) 10:41:10 adr: 1 control: 0 mode: -1
track:   6 lba:     61256 (   245024) 13:38:56 adr: 1 control: 0 mode: -1
track:   7 lba:     82356 (   329424) 18:20:06 adr: 1 control: 0 mode: -1
track:   8 lba:    105021 (   420084) 23:22:21 adr: 1 control: 0 mode: -1
track:   9 lba:    121973 (   487892) 27:08:23 adr: 1 control: 0 mode: -1
track:  10 lba:    132376 (   529504) 29:27:01 adr: 1 control: 0 mode: -1
track:  11 lba:    144794 (   579176) 32:12:44 adr: 1 control: 0 mode: -1
track:  12 lba:    155074 (   620296) 34:29:49 adr: 1 control: 0 mode: -1
track:  13 lba:    165468 (   661872) 36:48:18 adr: 1 control: 0 mode: -1
track:  14 lba:    180451 (   721804) 40:08:01 adr: 1 control: 0 mode: -1
track:  15 lba:    197502 (   790008) 43:55:27 adr: 1 control: 0 mode: -1
track:  16 lba:    214488 (   857952) 47:41:63 adr: 1 control: 0 mode: -1
track:  17 lba:    227613 (   910452) 50:36:63 adr: 1 control: 0 mode: -1
track:  18 lba:    239982 (   959928) 53:21:57 adr: 1 control: 0 mode: -1
track:  19 lba:    257974 (  1031896) 57:21:49 adr: 1 control: 0 mode: -1
track:  20 lba:    274537 (  1098148) 61:02:37 adr: 1 control: 0 mode: -1
track:  21 lba:    284154 (  1136616) 63:10:54 adr: 1 control: 0 mode: -1
track:lout lba:    300244 (  1200976) 66:45:19 adr: 1 control: 0 mode: -1
